<?xml version="1.0" standalone="no"?>
<!DOCTYPE svg PUBLIC "-//W3C//DTD SVG 20010904//EN"
 "http://www.w3.org/TR/2001/REC-SVG-20010904/DTD/svg10.dtd">
<svg version="1.0" xmlns="http://www.w3.org/2000/svg"
 width="16.000000pt" height="16.000000pt" viewBox="0 0 16.000000 16.000000"
 preserveAspectRatio="xMidYMid meet">
<metadata>
Created by potrace 1.11, written by Peter Selinger 2001-2013
</metadata>
<g transform="translate(0.000000,16.000000) scale(0.001000,-0.001000)"
fill="#000000" stroke="none">
<path d="M600 14081 l0 -1291 1284 0 c707 0 1287 4 1290 9 5 8 -2544 2562
-2564 2569 -7 2 -10 -455 -10 -1287z m1177 -133 c530 -530 963 -966 963 -970
0 -5 -440 -7 -977 -6 l-978 3 -3 968 c-2 914 -1 967 15 967 10 0 440 -422 980
-962z"/>
<path d="M600 11120 l0 -730 2490 0 c1629 0 2490 3 2490 10 0 11 -1311 1320
-1322 1320 -5 0 -8 4 -8 9 0 5 -26 34 -57 65 l-58 56 -1767 0 -1768 0 0 -730z
m3530 484 c36 -36 84 -84 108 -107 23 -23 59 -59 80 -81 47 -48 100 -101 148
-148 22 -21 58 -57 80 -80 23 -24 59 -60 80 -80 22 -21 58 -57 80 -80 23 -24
59 -60 80 -80 22 -21 58 -57 80 -80 23 -24 59 -60 80 -80 22 -21 58 -57 80
-80 23 -24 60 -60 83 -81 22 -21 41 -42 41 -48 0 -6 -816 -8 -2182 -7 l-2183
3 -3 539 c-2 425 0 541 10 548 7 4 747 8 1643 8 l1631 0 64 -66z"/>
<path d="M600 8720 l0 -730 3690 0 c2960 0 3690 2 3690 13 0 7 -323 335 -718
730 l-717 717 -2973 0 -2972 0 0 -730z m6399 10 c298 -298 541 -545 541 -550
0 -7 -1223 -9 -3377 -8 l-3378 3 -3 534 c-1 386 1 538 9 547 10 12 464 14
2840 14 l2828 0 540 -540z"/>
<path d="M8020 7972 c0 -22 40 -62 62 -62 9 0 18 -9 20 -21 2 -11 297 -315
672 -690 l670 -669 2978 0 2978 0 0 730 0 730 -3690 0 c-3566 0 -3690 -1
-3690 -18z"/>
<path d="M10410 5570 c0 -11 4 -20 9 -20 6 0 43 -34 83 -76 40 -41 357 -360
705 -707 l632 -632 1143 -8 c629 -4 1429 -8 1778 -10 l635 -2 0 735 0 735
-2492 3 c-2488 2 -2493 2 -2493 -18z"/>
<path d="M12840 3155 c0 -13 239 -253 950 -955 120 -118 224 -220 231 -227 8
-7 88 -87 179 -177 683 -684 1162 -1156 1174 -1156 7 0 17 7 20 16 3 9 6 578
6 1265 l0 1249 -1280 0 c-1120 0 -1280 -2 -1280 -15z"/>
</g>
</svg>
